<?xml version="1.0" encoding="UTF-8" standalone="no"?>
<!-- Created with Inkscape (http://www.inkscape.org/) -->
<svg
   xmlns:dc="http://purl.org/dc/elements/1.1/"
   xmlns:cc="http://creativecommons.org/ns#"
   xmlns:rdf="http://www.w3.org/1999/02/22-rdf-syntax-ns#"
   xmlns:svg="http://www.w3.org/2000/svg"
   xmlns="http://www.w3.org/2000/svg"
   xmlns:sodipodi="http://sodipodi.sourceforge.net/DTD/sodipodi-0.dtd"
   xmlns:inkscape="http://www.inkscape.org/namespaces/inkscape"
   id="svg2"
   sodipodi:version="0.32"
   inkscape:version="0.46"
   width="182"
   height="204"
   version="1.0"
   sodipodi:docname="21st_SS_Division_Logo.svg"
   inkscape:output_extension="org.inkscape.output.svg.inkscape">
  <metadata
     id="metadata7">
    <rdf:RDF>
      <cc:Work
         rdf:about="">
        <dc:format>image/svg+xml</dc:format>
        <dc:type
           rdf:resource="http://purl.org/dc/dcmitype/StillImage" />
      </cc:Work>
    </rdf:RDF>
  </metadata>
  <defs
     id="defs5">
    <inkscape:perspective
       sodipodi:type="inkscape:persp3d"
       inkscape:vp_x="0 : 526.18109 : 1"
       inkscape:vp_y="0 : 1000 : 0"
       inkscape:vp_z="744.09448 : 526.18109 : 1"
       inkscape:persp3d-origin="372.04724 : 350.78739 : 1"
       id="perspective9" />
    <inkscape:perspective
       id="perspective3245"
       inkscape:persp3d-origin="372.04724 : 350.78739 : 1"
       inkscape:vp_z="744.09448 : 526.18109 : 1"
       inkscape:vp_y="0 : 1000 : 0"
       inkscape:vp_x="0 : 526.18109 : 1"
       sodipodi:type="inkscape:persp3d" />
    <inkscape:perspective
       id="perspective3334"
       inkscape:persp3d-origin="372.04724 : 350.78739 : 1"
       inkscape:vp_z="744.09448 : 526.18109 : 1"
       inkscape:vp_y="0 : 1000 : 0"
       inkscape:vp_x="0 : 526.18109 : 1"
       sodipodi:type="inkscape:persp3d" />
    <inkscape:perspective
       id="perspective3350"
       inkscape:persp3d-origin="372.04724 : 350.78739 : 1"
       inkscape:vp_z="744.09448 : 526.18109 : 1"
       inkscape:vp_y="0 : 1000 : 0"
       inkscape:vp_x="0 : 526.18109 : 1"
       sodipodi:type="inkscape:persp3d" />
  </defs>
  <sodipodi:namedview
     inkscape:window-height="720"
     inkscape:window-width="1276"
     inkscape:pageshadow="2"
     inkscape:pageopacity="0.0"
     guidetolerance="10.0"
     gridtolerance="10.0"
     objecttolerance="10.0"
     borderopacity="1.0"
     bordercolor="#666666"
     pagecolor="#ffffff"
     id="base"
     showgrid="false"
     showguides="true"
     inkscape:guide-bbox="true"
     inkscape:zoom="1.132353"
     inkscape:cx="-5.6171615"
     inkscape:cy="77.263753"
     inkscape:window-x="0"
     inkscape:window-y="23"
     inkscape:current-layer="svg2" />
  <g
     id="g3360">
    <path
       sodipodi:nodetypes="ccccccscccccc"
       id="path3356"
       d="M 89.69131,197.86017 C 79.631286,191.42981 68.388145,187.20423 57.396247,182.75384 C 38.853043,173.11297 23.18973,157.27672 16.022389,137.40531 C 10.196403,121.23709 12.147787,103.64997 11.472751,86.792047 C 11.51543,60.231504 10.506904,31.637315 11.434341,5.0921657 C 11.723421,5.1493603 42.198565,5.1817851 52.786841,5.1937793 C 57.911708,6.61065 71.626316,19.141998 91.467505,19.132692 C 111.30869,19.123385 119.33223,8.6135961 130.0128,5.1641694 C 140.53726,5.1488853 170.8506,5.1121343 170.95918,5.0921657 C 170.32522,43.0861 171.30659,81.77988 169.60269,119.74516 C 168.5089,140.74306 156.52791,160.06409 140.47818,173.14971 C 126.49784,184.32218 108.57452,188.65061 93.590776,198.2258 C 92.722632,199.93712 90.582265,198.91582 89.69131,197.86017 z"
       style="fill: rgb(255, 255, 255); stroke: rgb(0, 0, 0); stroke-width: 0.99949; stroke-opacity: 1;" />
    <path
       sodipodi:nodetypes="cccccccccccc"
       id="path3340"
       d="M 89.782294,191.19482 C 80.421762,185.21158 69.960382,181.27981 59.732773,177.13887 C 42.478913,168.16835 27.904712,153.43322 21.235722,134.94351 C 15.814842,119.89949 17.630532,103.53525 17.002442,87.849483 C 17.042152,63.135748 16.103752,36.529772 16.966692,11.830362 C 30.556355,11.832275 39.411061,11.843513 52.930062,11.863386 C 80.538108,32.637629 103.02021,30.546507 131.36561,11.9312 C 144.42031,11.918862 152.66736,11.887943 165.39946,11.830362 C 164.80958,47.182499 165.7227,83.185822 164.13728,118.5113 C 163.11955,138.04918 151.97162,156.02678 137.03785,168.20253 C 124.0296,178.59816 107.35252,182.62562 93.410624,191.53503 C 92.602845,193.12736 90.611309,192.17707 89.782294,191.19482 z"
       style="fill: rgb(0, 0, 0);" />
    <path
       id="path3251"
       d="M 88.766531,159.80924 C 88.434892,158.57174 88.157412,156.35854 88.149901,154.89103 C 88.131912,151.3768 87.193762,149.06288 85.779252,149.04393 C 82.834102,149.00447 82.076942,147.48824 83.505882,144.49142 C 85.938721,139.38917 86.378742,136.05924 84.620112,136.05924 C 82.686652,136.05924 77.974052,138.99639 76.636241,141.03523 C 74.268342,144.64393 74.309412,146.95405 76.789051,149.62962 C 79.916892,153.00461 79.239252,153.67649 74.821712,151.58022 C 68.088142,148.38494 69.956152,140.43948 78.297201,136.79741 C 83.828361,134.38225 84.479242,133.05924 80.136241,133.05924 C 76.511032,133.05924 76.402662,132.32994 79.527162,128.96031 C 82.510292,125.74312 84.680232,121.55766 85.615582,117.2167 C 86.236832,114.33349 86.088121,113.92186 84.533411,114.22127 C 82.906042,114.53467 78.395372,119.76428 75.531611,124.65784 C 74.594052,126.25994 74.184762,126.34439 72.825422,125.21624 C 71.937222,124.4791 70.647562,124.23083 69.930052,124.65886 C 67.196821,126.28933 59.136242,133.412 59.136242,134.19672 C 59.136242,134.65015 60.261242,135.30349 61.636242,135.6486 C 63.011242,135.9937 64.142391,136.56477 64.149901,136.91765 C 64.157412,137.27052 64.434892,138.57174 64.766531,139.80924 C 65.667562,143.17143 62.671442,142.70215 59.978122,139.05924 C 57.542482,135.76486 55.986622,135.32967 54.226522,137.45046 C 53.086002,138.8247 47.106482,140.25263 47.168042,139.13605 C 47.250722,137.63664 50.039882,135.05924 51.579822,135.05924 C 53.864152,135.05924 53.003412,132.65972 50.553372,132.19777 C 49.498952,131.99896 48.276382,131.21146 47.836552,130.44777 C 47.396722,129.68408 46.384222,129.05924 45.586552,129.05924 C 44.788882,129.05924 44.136242,128.60924 44.136242,128.05924 C 44.136242,125.96161 50.615372,127.07179 52.991202,129.57652 C 54.286432,130.94201 55.958252,132.05924 56.706352,132.05924 C 57.454462,132.05924 60.124372,129.92174 62.639492,127.30924 C 66.317182,123.48916 66.930502,122.37656 65.772271,121.62613 C 64.580312,120.85384 64.730202,120.37987 66.641902,118.87613 C 67.912292,117.87684 69.443222,117.05924 70.043971,117.05924 C 70.644722,117.05924 71.148342,116.72174 71.163142,116.30924 C 71.177931,115.89674 72.873502,114.52227 74.931061,113.25486 C 78.490142,111.06256 83.153722,105.50631 83.120931,103.49736 C 83.112512,102.98139 82.775012,103.01963 82.370931,103.58234 C 81.966852,104.14504 80.347272,105.42664 78.771861,106.43033 L 75.907482,108.25523 L 76.291752,104.22577 C 76.594192,101.0544 76.405591,100.42073 75.406132,101.25021 C 74.707692,101.82986 74.136241,102.74352 74.136241,103.28055 C 74.136241,103.81759 73.422942,105.76014 72.551131,107.59735 C 71.450861,109.91601 70.052592,111.13834 67.979632,111.59364 C 63.916752,112.48599 63.544192,111.75326 66.022171,107.7438 C 68.827622,103.20449 68.732882,101.02365 65.888832,104.67438 C 60.208132,111.96634 56.516372,113.91466 51.787032,112.11657 C 49.146082,111.11248 48.922812,109.09457 51.445262,109.02764 C 53.258322,108.97953 58.341082,104.17375 57.918792,102.90688 C 57.676632,102.18041 57.004702,102.33363 55.992102,103.34624 C 55.136922,104.20141 52.532292,105.41405 50.204032,106.04098 C 45.387022,107.33807 41.837672,105.84953 40.863332,102.12364 C 40.428762,100.46181 40.790882,100.05924 42.720322,100.05924 C 45.541372,100.05924 55.136242,96.050506 55.136242,94.871866 C 55.136242,93.766506 53.395712,93.850026 51.126922,95.064236 C 50.094112,95.616986 47.463752,96.139186 45.281682,96.224686 C 41.267292,96.381986 39.106252,95.096016 37.861672,91.809256 C 37.334182,90.416206 37.753542,90.046796 39.917632,89.998156 C 41.412862,89.964556 45.111242,89.133136 48.136242,88.150546 L 53.636242,86.364026 L 47.136242,86.824786 C 39.912892,87.336816 37.950852,86.198346 36.577902,80.698336 L 35.863752,77.837413 L 39.999992,78.536236 C 44.658532,79.323286 52.136242,78.359096 52.136242,76.971353 C 52.136242,76.469693 49.998742,76.053106 47.386242,76.045596 C 40.706902,76.026395 38.546242,75.254526 37.258142,72.427444 C 35.409072,68.369183 35.793902,66.712594 38.386242,67.571266 C 42.206902,68.836801 50.136242,69.317492 50.136242,68.283573 C 50.136242,67.750785 48.448742,67.042037 46.386242,66.708577 C 41.700872,65.951059 37.136242,61.856816 37.136242,58.411793 C 37.136242,56.353311 37.482652,55.991204 38.886242,56.582488 C 39.848742,56.987957 45.302142,57.678625 51.004902,58.117306 C 56.707662,58.555988 62.670162,59.45198 64.254902,60.108401 C 67.085872,61.281025 67.136241,61.439894 67.136241,69.19527 C 67.136241,76.957703 67.187892,77.120063 70.250042,78.982266 C 72.747712,80.501186 73.939102,80.675336 76.271151,79.862376 C 77.870171,79.304956 79.652631,77.962893 80.232172,76.880013 C 81.104222,75.250557 80.928191,74.817606 79.211061,74.368565 C 76.703142,73.712731 76.698161,73.657481 78.850531,70.372554 C 80.933071,67.194193 81.163722,58.002209 79.219701,55.659816 C 78.479892,54.768399 75.466782,53.339088 72.523902,52.483569 C 69.581022,51.62805 66.913331,50.507594 66.595712,49.993666 C 66.278081,49.479738 64.051912,49.059251 61.648652,49.059251 C 59.009662,49.059251 56.656732,48.436885 55.707672,47.487822 C 53.343872,45.124021 53.817542,43.684423 56.222032,45.924549 C 58.492352,48.039672 57.539072,48.25834 67.290532,43.385587 C 70.062132,42.000636 77.005381,41.649636 80.914282,42.69687 C 82.573752,43.141458 83.032762,43.809928 82.604692,45.158663 C 82.208032,46.408417 82.999571,47.970586 85.040192,49.965359 C 86.702921,51.590726 88.353521,54.076775 88.708191,55.489911 C 89.293562,57.822205 92.136241,59.242813 92.136241,57.203053 C 92.136241,56.732145 93.710822,54.284696 95.635301,51.764278 C 97.736621,49.012255 99.034872,46.258459 98.885301,44.870476 C 98.649652,42.683675 99.000442,42.543314 105.40148,42.263214 C 110.27293,42.050046 112.78458,42.399955 114.37399,43.513214 C 115.58799,44.363534 117.57958,45.059251 118.79973,45.059251 C 120.01989,45.059251 121.29632,45.509251 121.63625,46.059251 C 122.6207,47.652124 124.97064,47.224862 127.13625,45.059251 C 129.3827,42.812806 129.77934,43.628293 127.74421,46.309223 C 126.96167,47.340105 124.40652,48.321431 121.52603,48.697372 C 118.83665,49.04837 116.18625,49.669058 115.63625,50.07668 C 115.08624,50.484302 112.05953,51.556571 108.9102,52.4595 C 105.51698,53.432361 102.76701,54.880668 102.1602,56.014479 C 100.36704,59.365059 100.92283,67.518226 103.13625,70.332122 C 105.71739,73.613509 105.65759,74.059251 102.63625,74.059251 C 99.781992,74.059251 99.538852,74.860011 101.55563,77.618123 C 103.35061,80.072896 111.68419,80.389756 113.15741,78.059253 C 113.67892,77.234253 114.11252,73.307125 114.12094,69.332304 C 114.14118,59.778155 115.08196,59.137478 130.81561,57.9632 C 137.24462,57.483372 142.9618,56.633691 143.52048,56.075019 C 145.27537,54.320117 146.13625,54.956392 146.13625,58.00836 C 146.13625,61.620068 141.41968,65.586376 135.57196,66.892194 C 131.71356,67.753788 131.68992,67.785748 134.36859,68.51913 C 136.82692,69.192181 138.86408,68.792667 144.38625,66.554545 C 145.83462,65.967521 146.13625,66.393095 146.13625,69.023691 C 146.13625,73.644198 143.82187,75.382038 137.01254,75.87458 C 133.78057,76.108359 131.13625,76.695543 131.13625,77.179443 C 131.13625,78.097486 135.97494,78.499026 142.38625,78.113046 C 145.72549,77.912003 146.13625,78.146156 146.13625,80.250756 C 146.13625,81.550676 145.39715,83.669436 144.49383,84.959116 C 142.95815,87.151616 142.35709,87.273266 135.24383,86.831206 C 131.05965,86.571176 128.76125,86.686476 130.13625,87.087436 C 131.51125,87.488386 134.48434,88.371846 136.74311,89.050666 C 139.00188,89.729496 141.81438,89.978796 142.99311,89.604686 C 145.41378,88.836396 145.67015,89.793346 144.01618,93.423436 C 142.52567,96.694756 137.65219,97.576666 131.98065,95.601406 C 126.96804,93.855646 126.13625,93.752296 126.13625,94.875236 C 126.13625,96.079666 136.25077,100.05924 139.31196,100.05924 C 141.46992,100.05924 141.85253,100.42815 141.41799,102.08983 C 140.1415,106.97115 133.84855,108.4006 128.36208,105.0555 C 126.56128,103.95756 124.53628,103.07243 123.86208,103.08855 C 121.83745,103.13697 129.00974,109.05924 131.09301,109.05924 C 134.54157,109.05924 134.2409,110.86959 130.59234,112.07373 C 124.7548,114.00029 120.17611,111.76284 115.66253,104.77803 C 112.77172,100.30444 112.66251,102.51756 115.52165,107.63312 C 116.95968,110.20603 118.13625,112.41706 118.13625,112.54652 C 118.13625,112.67597 116.89874,112.56192 115.38625,112.29306 C 111.53387,111.60828 108.27819,108.33277 107.54027,104.39931 C 106.72283,100.04199 105.33984,100.12557 104.94662,104.55605 L 104.63625,108.05286 L 101.7877,105.77161 C 99.602252,104.02139 98.815432,102.39266 98.407652,98.774806 C 97.833861,93.684226 96.136241,92.261656 96.136241,96.871426 C 96.136241,102.50193 101.13765,110.17486 107.10575,113.70029 C 108.77251,114.68488 110.13625,115.84343 110.13625,116.27485 C 110.13625,116.70626 110.7424,117.05924 111.48324,117.05924 C 112.22409,117.05924 113.86793,117.95924 115.13625,119.05924 C 116.97726,120.65593 117.10894,121.05924 115.78925,121.05924 C 113.20945,121.05924 113.78234,122.29831 118.70287,127.36083 C 123.08141,131.86574 126.31296,133.20036 127.64065,131.05213 C 128.75807,129.2441 134.27794,126.89963 135.92727,127.53254 C 137.26378,128.04541 137.05184,128.5681 134.68147,130.60489 C 133.1105,131.95478 130.99516,133.05924 129.98071,133.05924 C 128.96625,133.05924 128.13625,133.50924 128.13625,134.05924 C 128.13625,134.60924 128.7415,135.05924 129.48126,135.05924 C 130.22101,135.05924 131.57101,135.88217 132.48126,136.88798 C 134.42244,139.03296 134.72272,141.53974 132.90383,140.4156 C 132.226,139.99668 130.80884,139.59037 129.75457,139.5127 C 128.70031,139.43503 127.20208,138.51373 126.42516,137.46536 C 125.04017,135.59646 124.98522,135.59618 123.61048,137.45105 C 122.83933,138.49155 122.07964,139.65943 121.9223,140.04634 C 121.76497,140.43326 120.36283,141.06203 118.80645,141.44361 C 116.20204,142.08214 116.03427,141.95508 116.69992,139.84832 C 117.0977,138.58933 118.2586,136.97122 119.27971,136.25254 C 120.3008,135.53385 121.13625,134.57474 121.13625,134.12119 C 121.13625,133.09751 115.43251,127.3807 112.34861,125.31341 C 110.25478,123.90982 109.94606,123.93708 108.7043,125.63529 C 107.44433,127.35838 107.14399,127.14382 104.49193,122.62608 C 100.44282,115.72852 97.661972,112.61629 96.300032,113.45801 C 95.659952,113.8536 95.136241,114.90864 95.136241,115.80253 C 95.136241,118.32971 99.290502,126.2977 101.83997,128.66046 C 105.08311,131.66611 104.7019,133.05924 100.63625,133.05924 C 98.711241,133.05924 97.136241,133.50924 97.136241,134.05924 C 97.136241,134.60924 97.649451,135.05924 98.276712,135.05924 C 101.43804,135.05924 108.17553,139.62225 109.67267,142.77724 C 111.16047,145.91254 111.15944,146.37491 109.65947,148.66415 C 108.0939,151.05351 103.37219,153.62851 102.3785,152.63484 C 102.11432,152.37064 102.62672,151.42591 103.5172,150.53543 C 105.17193,148.8807 105.71382,142.47851 104.37094,140.44877 C 103.49846,139.13004 97.716842,136.05924 96.106452,136.05924 C 94.769162,136.05924 95.675781,141.18602 97.721372,145.1913 C 99.008802,147.71211 98.940312,147.84843 96.100932,148.4163 C 93.413622,148.95376 93.136241,149.37973 93.136241,152.96914 C 93.136241,160.12954 90.118352,164.85357 88.766531,159.80924 z M 85.120931,96.809256 C 85.129351,95.296756 84.686242,94.059256 84.136241,94.059256 C 83.586241,94.059256 83.143132,95.971756 83.151552,98.309246 C 83.162772,101.42169 83.426332,102.15775 84.136241,101.05924 C 84.669402,100.23424 85.112512,98.321746 85.120931,96.809256 z"
       style="fill: rgb(255, 255, 255);" />
  </g>
</svg>
